<svg width="752.84375px" height="131.6px" xmlns="http://www.w3.org/2000/svg" viewBox="-126.421875 9.200000000000003 752.84375 131.6" style="background: rgb(253, 253, 253);" preserveAspectRatio="xMidYMid"><defs><filter id="editing-hole" x="-100%" y="-100%" width="300%" height="300%"><feFlood flood-color="#bbcedd" result="black"></feFlood><feMorphology operator="dilate" radius="2" in="SourceGraphic" result="erode"></feMorphology><feGaussianBlur in="erode" stdDeviation="4" result="blur"></feGaussianBlur><feOffset in="blur" dx="2" dy="2" result="offset"></feOffset><feComposite operator="atop" in="offset" in2="black" result="merge"></feComposite><feComposite operator="in" in="merge" in2="SourceGraphic" result="inner-shadow"></feComposite></filter></defs><g filter="url(#editing-hole)"><g transform="translate(-19.065011501312256, 98.56000137329102)"><path d="M31.75-9.25L36.94-4.69L36.94-4.69Q34.38-2.19 31.13-0.94L31.13-0.94L31.13-0.94Q27.88 0.31 24.13 0.31L24.13 0.31L24.13 0.31Q20 0.31 16.53-1.19L16.53-1.19L16.53-1.19Q13.06-2.69 10.47-5.63L10.47-5.63L10.47-5.63Q7.88-8.56 6.41-13L6.41-13L6.41-13Q4.94-17.44 4.94-23.25L4.94-23.25L4.94-23.25Q4.94-29.06 6.41-33.47L6.41-33.47L6.41-33.47Q7.88-37.88 10.47-40.81L10.47-40.81L10.47-40.81Q13.06-43.75 16.56-45.28L16.56-45.28L16.56-45.28Q20.06-46.81 24.13-46.81L24.13-46.81L24.13-46.81Q27.88-46.81 31.13-45.56L31.13-45.56L31.13-45.56Q34.38-44.31 36.94-41.81L36.94-41.81L31.75-37.19L31.75-37.19Q30.19-39 28.28-39.81L28.28-39.81L28.28-39.81Q26.38-40.63 24.31-40.63L24.31-40.63L24.31-40.63Q22-40.63 19.91-39.75L19.91-39.75L19.91-39.75Q17.81-38.88 16.16-36.78L16.16-36.78L16.16-36.78Q14.50-34.69 13.56-31.38L13.56-31.38L13.56-31.38Q12.63-28.06 12.56-23.25L12.56-23.25L12.56-23.25Q12.63-18.56 13.53-15.25L13.53-15.25L13.53-15.25Q14.44-11.94 16.03-9.84L16.03-9.84L16.03-9.84Q17.63-7.75 19.66-6.78L19.66-6.78L19.66-6.78Q21.69-5.81 23.94-5.81L23.94-5.81L23.94-5.81Q26.19-5.81 28.16-6.63L28.16-6.63L28.16-6.63Q30.13-7.44 31.75-9.25L31.75-9.25ZM85.13-23.25L85.13-23.25L85.13-23.25Q85.13-17.44 83.66-13L83.66-13L83.66-13Q82.19-8.56 79.59-5.63L79.59-5.63L79.59-5.63Q77-2.69 73.53-1.19L73.53-1.19L73.53-1.19Q70.06 0.31 65.94 0.31L65.94 0.31L65.94 0.31Q61.81 0.31 58.34-1.19L58.34-1.19L58.34-1.19Q54.88-2.69 52.28-5.63L52.28-5.63L52.28-5.63Q49.69-8.56 48.22-13L48.22-13L48.22-13Q46.75-17.44 46.75-23.25L46.75-23.25L46.75-23.25Q46.75-29.06 48.22-33.47L48.22-33.47L48.22-33.47Q49.69-37.88 52.28-40.81L52.28-40.81L52.28-40.81Q54.88-43.75 58.34-45.28L58.34-45.28L58.34-45.28Q61.81-46.81 65.94-46.81L65.94-46.81L65.94-46.81Q70.06-46.81 73.53-45.28L73.53-45.28L73.53-45.28Q77-43.75 79.59-40.81L79.59-40.81L79.59-40.81Q82.19-37.88 83.66-33.47L83.66-33.47L83.66-33.47Q85.13-29.06 85.13-23.25ZM65.75-5.81L65.75-5.81L65.75-5.81Q68.06-5.81 70.16-6.72L70.16-6.72L70.16-6.72Q72.25-7.63 73.91-9.69L73.91-9.69L73.91-9.69Q75.56-11.75 76.50-15.09L76.50-15.09L76.50-15.09Q77.44-18.44 77.50-23.25L77.50-23.25L77.50-23.25Q77.44-27.94 76.53-31.22L76.53-31.22L76.53-31.22Q75.63-34.50 74.03-36.63L74.03-36.63L74.03-36.63Q72.44-38.75 70.41-39.69L70.41-39.69L70.41-39.69Q68.38-40.63 66.13-40.63L66.13-40.63L66.13-40.63Q63.81-40.63 61.72-39.75L61.72-39.75L61.72-39.75Q59.63-38.88 57.97-36.78L57.97-36.78L57.97-36.78Q56.31-34.69 55.38-31.38L55.38-31.38L55.38-31.38Q54.44-28.06 54.38-23.25L54.38-23.25L54.38-23.25Q54.44-18.56 55.34-15.25L55.34-15.25L55.34-15.25Q56.25-11.94 57.84-9.84L57.84-9.84L57.84-9.84Q59.44-7.75 61.47-6.78L61.47-6.78L61.47-6.78Q63.50-5.81 65.75-5.81ZM133.13-24.31L133.13-24.31L133.13-24.31Q133.13-18.63 131.91-14.59L131.91-14.59L131.91-14.59Q130.69-10.56 128.81-7.84L128.81-7.84L128.81-7.84Q126.94-5.13 124.59-3.56L124.59-3.56L124.59-3.56Q122.25-2 120.06-1.22L120.06-1.22L120.06-1.22Q117.88-0.44 116.06-0.22L116.06-0.22L116.06-0.22Q114.25 0 113.38 0L113.38 0L95.94 0L95.94-46.06L109.81-46.06L109.81-46.06Q115.63-46.06 120.03-44.22L120.03-44.22L120.03-44.22Q124.44-42.38 127.34-39.31L127.34-39.31L127.34-39.31Q130.25-36.25 131.69-32.34L131.69-32.34L131.69-32.34Q133.13-28.44 133.13-24.31ZM103.44-5.50L110.88-5.50L110.88-5.50Q118.50-5.50 121.88-10.38L121.88-10.38L121.88-10.38Q125.25-15.25 125.25-24.50L125.25-24.50L125.25-24.50Q125.25-27.38 124.56-30.19L124.56-30.19L124.56-30.19Q123.88-33 121.91-35.28L121.91-35.28L121.91-35.28Q119.94-37.56 116.56-38.97L116.56-38.97L116.56-38.97Q113.19-40.38 107.81-40.38L107.81-40.38L103.44-40.38L103.44-5.50ZM172.81-40.38L151.63-40.38L151.63-25.88L170.88-25.88L170.88-20.75L151.63-20.75L151.63-5.69L172.81-5.69L172.81 0L144 0L144-46.06L172.81-46.06L172.81-40.38ZM207.94-46.06L207.94 0L200.31 0L200.31-46.06L207.94-46.06ZM245.13-46.06L252.75-46.06L252.75 0L245.13 0L227.06-31.75L227.06 0L219.44 0L219.44-46.06L227.06-46.06L245.13-14.31L245.13-46.06ZM285.50-14.56L299.13-46.06L306.75-46.06L306.75 0L299.13 0L299.13-31.69L288.81-6.06L282.19-6.06L271.81-31.69L271.81 0L264.19 0L264.19-46.06L271.81-46.06L285.50-14.56ZM347.25-40.38L326.06-40.38L326.06-25.88L345.31-25.88L345.31-20.75L326.06-20.75L326.06-5.69L347.25-5.69L347.25 0L318.44 0L318.44-46.06L347.25-46.06L347.25-40.38ZM388.63 0L380.69 0L372-16.69L372-16.69Q371.81-16.69 371.50-16.66L371.50-16.66L371.50-16.66Q371.19-16.63 370.53-16.63L370.53-16.63L370.53-16.63Q369.88-16.63 368.53-16.63L368.53-16.63L368.53-16.63Q367.19-16.63 364.88-16.63L364.88-16.63L364.88 0L357.38 0L357.38-46.06L370.63-46.06L370.63-46.06Q373.56-46.06 376.44-45.13L376.44-45.13L376.44-45.13Q379.31-44.19 381.59-42.31L381.59-42.31L381.59-42.31Q383.88-40.44 385.28-37.78L385.28-37.78L385.28-37.78Q386.69-35.13 386.69-31.81L386.69-31.81L386.69-31.81Q386.69-26.81 384.38-23.31L384.38-23.31L384.38-23.31Q382.06-19.81 378.13-18.13L378.13-18.13L388.63 0ZM364.88-40.38L364.88-22.13L371.69-22.13L371.69-22.13Q373.06-22.13 374.44-22.59L374.44-22.59L374.44-22.59Q375.81-23.06 376.94-24.13L376.94-24.13L376.94-24.13Q378.06-25.19 378.75-27.09L378.75-27.09L378.75-27.09Q379.44-29 379.44-31.81L379.44-31.81L379.44-31.81Q379.44-32.94 379.13-34.41L379.13-34.41L379.13-34.41Q378.81-35.88 377.84-37.22L377.84-37.22L377.84-37.22Q376.88-38.56 375.13-39.47L375.13-39.47L375.13-39.47Q373.38-40.38 370.50-40.38L370.50-40.38L364.88-40.38ZM424.81-12.63L424.81-12.63L424.81-12.63Q424.81-10.13 423.78-7.78L423.78-7.78L423.78-7.78Q422.75-5.44 420.88-3.66L420.88-3.66L420.88-3.66Q419-1.88 416.25-0.81L416.25-0.81L416.25-0.81Q413.50 0.25 410 0.25L410 0.25L410 0.25Q408.50 0.25 406.91 0.09L406.91 0.09L406.91 0.09Q405.31-0.06 403.69-0.44L403.69-0.44L403.69-0.44Q402.06-0.81 400.59-1.47L400.59-1.47L400.59-1.47Q399.13-2.13 398.06-3.06L398.06-3.06L399.38-8.44L399.38-8.44Q400.25-7.94 401.59-7.47L401.59-7.47L401.59-7.47Q402.94-7 404.38-6.59L404.38-6.59L404.38-6.59Q405.81-6.19 407.25-5.94L407.25-5.94L407.25-5.94Q408.69-5.69 409.94-5.69L409.94-5.69L409.94-5.69Q413.75-5.69 415.78-7.47L415.78-7.47L415.78-7.47Q417.81-9.25 417.81-12.75L417.81-12.75L417.81-12.75Q417.81-14.88 416.38-16.38L416.38-16.38L416.38-16.38Q414.94-17.88 412.78-19.09L412.78-19.09L412.78-19.09Q410.63-20.31 408.13-21.53L408.13-21.53L408.13-21.53Q405.63-22.75 403.44-24.41L403.44-24.41L403.44-24.41Q401.25-26.06 399.81-28.31L399.81-28.31L399.81-28.31Q398.38-30.56 398.38-33.94L398.38-33.94L398.38-33.94Q398.38-37 399.50-39.38L399.50-39.38L399.50-39.38Q400.63-41.75 402.53-43.41L402.53-43.41L402.53-43.41Q404.44-45.06 406.97-45.94L406.97-45.94L406.97-45.94Q409.50-46.81 412.31-46.81L412.31-46.81L412.31-46.81Q415.19-46.81 418.13-46.28L418.13-46.28L418.13-46.28Q421.06-45.75 422.88-44.56L422.88-44.56L422.88-44.56Q422.50-43.75 422-42.78L422-42.78L422-42.78Q421.50-41.81 421.06-40.97L421.06-40.97L421.06-40.97Q420.63-40.13 420.31-39.56L420.31-39.56L420.31-39.56Q420-39 419.94-38.94L419.94-38.94L419.94-38.94Q419.56-39.13 419.09-39.44L419.09-39.44L419.09-39.44Q418.63-39.75 417.75-40.06L417.75-40.06L417.75-40.06Q416.88-40.38 415.44-40.50L415.44-40.50L415.44-40.50Q414-40.63 411.75-40.44L411.75-40.44L411.75-40.44Q410.50-40.31 409.38-39.72L409.38-39.72L409.38-39.72Q408.25-39.13 407.38-38.25L407.38-38.25L407.38-38.25Q406.50-37.38 406-36.28L406-36.28L406-36.28Q405.50-35.19 405.50-34.19L405.50-34.19L405.50-34.19Q405.50-31.69 406.94-30.16L406.94-30.16L406.94-30.16Q408.38-28.63 410.50-27.47L410.50-27.47L410.50-27.47Q412.63-26.31 415.13-25.22L415.13-25.22L415.13-25.22Q417.63-24.13 419.78-22.56L419.78-22.56L419.78-22.56Q421.94-21 423.38-18.66L423.38-18.66L423.38-18.66Q424.81-16.31 424.81-12.63ZM440.38-46.06L440.38 0L432.75 0L432.75-46.06L440.38-46.06ZM489.31-23.25L489.31-23.25L489.31-23.25Q489.31-17.44 487.84-13L487.84-13L487.84-13Q486.38-8.56 483.78-5.63L483.78-5.63L483.78-5.63Q481.19-2.69 477.72-1.19L477.72-1.19L477.72-1.19Q474.25 0.31 470.13 0.31L470.13 0.31L470.13 0.31Q466 0.31 462.53-1.19L462.53-1.19L462.53-1.19Q459.06-2.69 456.47-5.63L456.47-5.63L456.47-5.63Q453.88-8.56 452.41-13L452.41-13L452.41-13Q450.94-17.44 450.94-23.25L450.94-23.25L450.94-23.25Q450.94-29.06 452.41-33.47L452.41-33.47L452.41-33.47Q453.88-37.88 456.47-40.81L456.47-40.81L456.47-40.81Q459.06-43.75 462.53-45.28L462.53-45.28L462.53-45.28Q466-46.81 470.13-46.81L470.13-46.81L470.13-46.81Q474.25-46.81 477.72-45.28L477.72-45.28L477.72-45.28Q481.19-43.75 483.78-40.81L483.78-40.81L483.78-40.81Q486.38-37.88 487.84-33.47L487.84-33.47L487.84-33.47Q489.31-29.06 489.31-23.25ZM469.94-5.81L469.94-5.81L469.94-5.81Q472.25-5.81 474.34-6.72L474.34-6.72L474.34-6.72Q476.44-7.63 478.09-9.69L478.09-9.69L478.09-9.69Q479.75-11.75 480.69-15.09L480.69-15.09L480.69-15.09Q481.63-18.44 481.69-23.25L481.69-23.25L481.69-23.25Q481.63-27.94 480.72-31.22L480.72-31.22L480.72-31.22Q479.81-34.50 478.22-36.63L478.22-36.63L478.22-36.63Q476.63-38.75 474.59-39.69L474.59-39.69L474.59-39.69Q472.56-40.63 470.31-40.63L470.31-40.63L470.31-40.63Q468-40.63 465.91-39.75L465.91-39.75L465.91-39.75Q463.81-38.88 462.16-36.78L462.16-36.78L462.16-36.78Q460.50-34.69 459.56-31.38L459.56-31.38L459.56-31.38Q458.63-28.06 458.56-23.25L458.56-23.25L458.56-23.25Q458.63-18.56 459.53-15.25L459.53-15.25L459.53-15.25Q460.44-11.94 462.03-9.84L462.03-9.84L462.03-9.84Q463.63-7.75 465.66-6.78L465.66-6.78L465.66-6.78Q467.69-5.81 469.94-5.81ZM525.56-46.06L533.19-46.06L533.19 0L525.56 0L507.50-31.75L507.50 0L499.88 0L499.88-46.06L507.50-46.06L525.56-14.31L525.56-46.06Z" fill="#85a2b6"></path></g></g><style>text {
  font-size: 64px;
  font-family: Arial Black;
  dominant-baseline: central;
  text-anchor: middle;
}</style></svg>