<?xml version="1.0" standalone="no"?>
<!DOCTYPE svg PUBLIC "-//W3C//DTD SVG 20010904//EN"
 "http://www.w3.org/TR/2001/REC-SVG-20010904/DTD/svg10.dtd">
<svg version="1.0" xmlns="http://www.w3.org/2000/svg"
 width="213.000000pt" height="500.000000pt" viewBox="0 0 213.000000 500.000000"
 preserveAspectRatio="xMidYMid meet">

<g transform="translate(0.000000,500.000000) scale(0.100000,-0.100000)"
fill="#fff" stroke="none">
<path d="M747 4872 c-15 -59 -27 -128 -27 -154 0 -49 36 -157 70 -212 l19 -32
-47 -31 c-75 -51 -112 -62 -249 -73 -144 -11 -176 -18 -238 -55 -70 -40 -63
-49 8 -10 35 19 70 35 78 35 8 -1 -12 -14 -44 -30 -70 -35 -135 -88 -173 -138
-24 -31 -18 -28 36 21 124 110 209 135 385 110 102 -14 157 -13 202 4 33 12
-15 -34 -113 -108 -50 -37 -97 -76 -105 -85 -8 -10 2 -6 22 9 20 15 73 42 118
60 126 51 155 77 258 228 51 74 106 145 122 157 17 12 37 35 45 50 26 51 99
66 170 37 50 -21 45 -27 -9 -9 -37 13 -48 13 -71 2 -15 -7 -32 -21 -38 -31 -9
-15 -6 -23 19 -43 34 -27 41 -28 211 -43 67 -6 146 -20 179 -31 67 -23 84 -25
68 -9 -9 9 -8 17 1 33 19 30 25 74 16 126 l-7 45 -2 -51 c-1 -49 -16 -110 -31
-127 -3 -4 -27 2 -53 13 l-47 21 44 42 c32 31 48 57 60 99 22 76 21 79 -13 27
-29 -44 -86 -103 -130 -132 -23 -15 -26 -14 -83 34 -66 55 -98 73 -145 84 -45
9 -88 -2 -123 -32 -17 -14 -30 -20 -30 -15 0 5 -35 36 -77 68 -77 58 -78 58
-47 19 32 -42 98 -155 92 -160 -2 -1 -18 -10 -36 -19 -18 -9 -69 -45 -115 -79
-76 -59 -149 -109 -137 -95 19 22 201 163 228 176 17 9 32 19 32 22 0 14 -73
100 -84 100 -7 0 -17 -5 -24 -12 -13 -13 -44 7 -40 26 1 6 -10 30 -26 53 -30
45 -76 161 -76 193 0 51 -18 18 -43 -78z m554 -267 l34 -14 -30 0 c-39 -1 -75
9 -75 20 0 14 34 11 71 -6z"/>
<path d="M1093 4554 c-17 -21 -45 -64 -62 -95 -33 -58 -111 -154 -159 -193
-15 -13 -101 -72 -192 -132 -175 -115 -296 -223 -338 -301 -31 -58 -23 -54 17
6 50 78 115 128 256 197 72 35 159 81 195 103 68 41 96 37 44 -7 -74 -62 -248
-241 -270 -277 -34 -58 -52 -114 -69 -218 -21 -123 -94 -262 -247 -470 -28
-37 -48 -70 -46 -73 3 -2 13 8 23 23 9 15 65 75 124 133 135 131 158 174 167
310 6 104 23 169 55 215 20 28 21 28 14 5 -3 -14 -10 -41 -16 -60 -5 -19 -14
-91 -20 -160 -15 -177 -25 -196 -187 -349 -139 -130 -184 -189 -208 -268 -12
-37 -12 -58 -4 -91 11 -44 59 -127 68 -117 3 3 -2 13 -11 23 -31 34 -49 93
-42 136 9 57 46 104 150 187 50 39 109 90 133 112 l42 41 0 -34 c0 -19 -16
-80 -36 -135 -99 -278 -116 -338 -121 -437 -5 -78 -2 -114 16 -190 20 -83 129
-390 117 -328 -8 41 -24 197 -31 300 -8 117 2 169 57 307 l43 106 17 -101 c43
-262 151 -544 306 -800 49 -80 50 -84 37 -115 -20 -49 -45 -180 -45 -240 0
-31 -11 -84 -26 -128 -107 -312 -164 -690 -163 -1079 1 -328 13 -378 21 -85 7
258 28 435 75 625 59 242 129 395 309 670 70 107 151 235 181 284 132 217 238
477 207 509 -23 22 -189 -134 -300 -283 -96 -128 -144 -209 -225 -375 -71
-144 -81 -149 -55 -24 32 149 115 297 285 509 164 204 288 407 325 529 19 64
21 198 4 256 l-11 40 -12 -80 c-27 -181 -79 -307 -206 -501 -45 -68 -83 -124
-84 -124 -2 0 25 60 59 133 160 335 228 587 182 675 -9 18 -21 32 -26 32 -6 0
-13 1 -17 3 -5 1 -8 -50 -9 -113 -1 -138 -19 -225 -84 -421 -63 -191 -137
-351 -243 -529 -48 -80 -93 -159 -99 -177 -7 -18 -15 -33 -19 -33 -13 0 -112
236 -160 382 -91 275 -125 505 -116 788 8 247 28 350 129 660 53 160 79 200
32 49 -14 -46 -36 -119 -49 -161 -42 -134 -58 -273 -58 -498 0 -272 34 -501
118 -795 29 -103 106 -318 111 -312 2 2 -12 57 -31 123 -94 318 -145 645 -145
929 0 112 22 391 34 425 2 8 12 42 21 75 l17 60 18 -57 c22 -71 76 -146 140
-193 82 -60 110 -63 191 -18 3 2 24 -11 47 -30 56 -47 137 -71 223 -65 48 4
74 1 86 -8 10 -7 28 -14 39 -14 16 0 26 -11 38 -43 58 -153 247 -168 384 -31
51 52 67 94 42 109 -6 3 -10 -4 -10 -17 0 -14 -6 -32 -13 -42 -12 -16 -17 -17
-62 -4 -39 12 -49 19 -50 39 -2 13 -11 47 -22 74 -16 43 -23 50 -44 48 -81 -9
-98 -7 -120 12 -32 29 -59 93 -59 142 0 23 -4 45 -10 48 -6 4 -10 -16 -10 -54
0 -33 -7 -79 -16 -101 -9 -22 -14 -52 -11 -66 2 -13 1 -23 -2 -22 -4 2 -31 12
-60 23 -45 16 -64 32 -110 89 -71 88 -70 99 31 341 63 149 114 212 200 244 49
18 116 -11 153 -67 13 -20 45 -59 70 -87 l46 -50 -21 42 c-11 23 -33 57 -48
75 -16 18 -34 48 -41 66 -15 37 -61 79 -96 88 -42 10 -121 -24 -181 -78 -57
-53 -113 -125 -119 -156 -2 -9 -14 -42 -28 -72 -13 -30 -33 -81 -43 -112 -13
-42 -23 -58 -35 -58 -30 0 -43 -37 -25 -65 22 -33 20 -45 -7 -45 -31 0 -134
85 -289 240 l-128 127 0 54 c0 29 4 49 8 43 4 -5 27 -34 49 -64 46 -60 133
-149 133 -136 0 12 -46 73 -88 118 -30 31 -33 40 -22 52 8 11 10 32 6 70 -5
39 -3 64 8 91 9 21 16 49 16 64 1 14 7 37 14 50 7 13 11 32 9 41 -3 12 7 20
39 31 23 7 56 26 73 40 l30 27 115 -38 c63 -20 130 -44 147 -54 41 -21 63 -62
64 -123 l1 -48 10 42 c16 64 2 111 -45 159 -36 36 -58 47 -159 78 -168 53
-208 94 -177 184 18 51 5 58 -28 16z m-3 -122 c0 -10 7 -27 15 -39 15 -21 14
-23 -17 -39 -18 -9 -48 -30 -66 -48 l-34 -31 36 53 c19 29 38 68 42 87 6 36
24 48 24 17z m-90 -210 c0 -28 -31 -115 -48 -134 -13 -16 -42 -25 -42 -14 0 2
16 33 35 70 19 37 35 74 35 82 0 8 5 14 10 14 6 0 10 -8 10 -18z m710 -172 c0
-5 -6 -10 -14 -10 -19 0 -105 -67 -185 -144 -53 -51 -61 -55 -45 -28 35 61
113 140 166 166 55 28 78 32 78 16z m-1035 -394 c-38 -118 -71 -213 -72 -212
-5 4 27 208 38 251 14 52 41 104 74 144 15 17 28 31 28 31 1 0 -29 -96 -68
-214z m403 -14 c26 -33 68 -87 95 -121 l47 -61 -21 -45 c-24 -50 -70 -95 -99
-95 -34 0 -90 61 -132 144 -37 74 -41 88 -48 195 -5 64 -12 127 -16 141 -6 20
6 13 60 -37 37 -34 89 -89 114 -121z m337 -241 c23 -29 53 -60 69 -68 38 -20
26 -28 -15 -10 -39 16 -119 99 -119 123 0 26 23 10 65 -45z m-855 -162 c-6
-41 -15 -110 -21 -154 -15 -116 -34 -198 -70 -300 -40 -114 -45 -200 -26 -405
9 -85 14 -156 12 -158 -11 -11 -66 200 -76 289 -13 121 -5 167 56 312 47 113
83 255 89 353 3 47 12 90 22 110 10 18 20 32 21 30 2 -2 -1 -37 -7 -77z m1023
21 c21 -35 11 -39 -27 -9 -30 24 -34 39 -8 39 10 0 26 -13 35 -30z m-959 -273
c2 -176 -4 -232 -20 -179 -3 9 -14 33 -24 53 -16 31 -18 45 -9 100 8 54 29
216 29 227 0 2 5 2 11 0 6 -2 11 -73 13 -201z m1172 142 c35 -9 47 -8 65 4 21
15 73 14 91 -2 32 -28 -131 -76 -187 -55 -14 6 -45 53 -45 70 0 3 7 3 16 0 9
-4 36 -11 60 -17z m-1152 -494 c3 -8 1 -15 -4 -15 -6 0 -10 7 -10 15 0 8 2 15
4 15 2 0 6 -7 10 -15z m609 -652 c-22 -38 -77 -126 -122 -198 -85 -135 -218
-389 -266 -510 -16 -38 -48 -126 -71 -195 -50 -147 -55 -140 -14 20 69 272
198 572 317 738 68 94 183 226 191 218 2 -3 -13 -36 -35 -73z m-506 -1055 c-3
-8 -6 -5 -6 6 -1 11 2 17 5 13 3 -3 4 -12 1 -19z"/>
<path d="M1173 4503 c-12 -31 59 -79 162 -108 72 -21 112 -40 144 -69 l24 -21
-12 22 c-20 39 -82 81 -177 118 -52 21 -94 41 -94 46 0 4 16 1 35 -6 19 -8 94
-24 167 -36 199 -31 307 -90 376 -208 37 -63 40 -32 4 42 -81 164 -204 221
-491 229 -104 3 -134 1 -138 -9z"/>
<path d="M1533 4404 c10 -12 53 -40 97 -64 110 -59 124 -76 125 -153 2 -105
56 -173 63 -79 8 105 -36 168 -166 236 -48 26 -98 54 -112 63 -25 17 -25 17
-7 -3z"/>
<path d="M1050 4209 c-20 -36 -11 -56 34 -83 49 -29 64 -31 119 -15 35 9 37
12 25 27 -8 9 -21 34 -31 55 l-17 37 -60 -1 c-47 -1 -63 -6 -70 -20z m120 -38
c15 -29 -5 -36 -30 -11 -25 25 -25 30 0 30 10 0 24 -9 30 -19z"/>
<path d="M1068 4097 c14 -15 22 -36 22 -59 0 -45 18 -64 90 -95 30 -14 79 -48
109 -76 42 -40 50 -45 36 -22 -52 86 -96 132 -172 182 -29 18 -53 40 -53 47 0
14 -31 46 -45 46 -5 0 1 -10 13 -23z"/>
<path d="M616 3989 c-43 -34 -113 -132 -171 -240 -63 -118 -79 -140 -196 -274
-173 -197 -211 -263 -237 -410 -14 -81 -14 -104 -2 -196 7 -57 19 -124 25
-149 11 -44 12 -41 18 70 10 199 51 306 179 472 157 205 208 297 254 463 27
98 69 181 120 235 50 53 53 63 10 29z m-295 -561 c-27 -40 -76 -106 -108 -146
-78 -96 -119 -166 -148 -249 -27 -77 -33 -65 -9 18 24 81 77 175 146 260 142
174 163 198 166 194 2 -2 -19 -36 -47 -77z"/>
<path d="M1736 3569 c-46 -36 -26 -108 47 -163 40 -30 63 -33 76 -8 7 13 2 31
-21 70 -30 52 -43 62 -50 40 -3 -8 -12 -2 -22 14 -19 28 -15 48 10 48 8 0 14
5 14 10 0 16 -26 11 -54 -11z"/>
<path d="M2062 3560 c0 -19 -3 -63 -7 -96 -5 -41 -4 -63 3 -68 7 -4 9 -19 5
-38 -8 -40 13 -35 44 11 17 25 22 47 22 94 -1 56 -19 127 -34 127 -3 0 -1 -9
5 -19 18 -34 11 -37 -15 -6 l-25 30 2 -35z"/>
</g>
</svg>
