<?xml version="1.0" standalone="no"?>
<!DOCTYPE svg PUBLIC "-//W3C//DTD SVG 20010904//EN"
 "http://www.w3.org/TR/2001/REC-SVG-20010904/DTD/svg10.dtd">
<svg version="1.0" xmlns="http://www.w3.org/2000/svg"
 width="3047.000000pt" height="720.000000pt" viewBox="0 0 3047.000000 720.000000"
 preserveAspectRatio="xMidYMid meet">

<g transform="translate(0.000000,720.000000) scale(0.100000,-0.100000)"
fill="#000000" stroke="none">
<path d="M0 3600 l0 -3600 15235 0 15235 0 0 3600 0 3600 -15235 0 -15235 0 0
-3600z m4628 2693 c-10 -2 -28 -2 -40 0 -13 2 -5 4 17 4 22 1 32 -1 23 -4z
m139 -9 c-3 -3 -12 -4 -19 -1 -8 3 -5 6 6 6 11 1 17 -2 13 -5z m-1744 -371
c-13 -2 -35 -2 -50 0 -16 2 -5 4 22 4 28 0 40 -2 28 -4z m5854 -100 c-20 -2
-52 -2 -70 0 -17 2 0 4 38 4 39 0 53 -2 32 -4z m-494 -10 c-18 -2 -48 -2 -65
0 -18 2 -4 4 32 4 36 0 50 -2 33 -4z m15799 -22 l33 -29 3 -2167 c1 -1485 -1
-2179 -8 -2206 -19 -68 -25 -69 -390 -69 l-322 0 -29 29 -29 29 0 2189 c0
1994 1 2191 16 2211 9 13 26 27 38 32 11 5 164 9 338 9 l318 1 32 -29z
m-16289 12 c-18 -2 -48 -2 -65 0 -18 2 -4 4 32 4 36 0 50 -2 33 -4z m6424 -8
c13 -9 27 -33 33 -54 6 -22 116 -491 245 -1042 129 -552 237 -1014 240 -1027
4 -15 12 -22 22 -20 15 3 102 402 444 2047 7 35 20 62 36 77 l26 24 309 0 310
0 29 -29 29 -29 0 -2182 0 -2181 -24 -24 c-13 -13 -39 -27 -57 -30 -19 -3
-162 -5 -317 -3 l-284 3 -24 28 -24 28 0 785 c0 698 -2 785 -15 791 -9 3 -18
3 -22 0 -3 -3 -96 -371 -208 -817 -112 -446 -205 -813 -207 -815 -2 -2 -118
366 -256 818 -139 452 -257 826 -261 830 -29 29 -31 -17 -31 -808 l0 -804 -24
-28 -24 -28 -288 -3 c-303 -3 -330 0 -359 42 -23 31 -22 4383 0 4426 8 15 20
30 27 33 7 3 157 6 333 6 273 1 324 -1 342 -14z m8494 -11 l24 -26 0 -518 0
-518 -24 -26 -24 -26 -181 1 c-100 0 -214 4 -254 8 -111 11 -112 12 -112 243
0 186 0 187 -26 217 l-26 31 -209 0 c-210 0 -210 0 -234 -25 l-25 -24 0 -333
0 -333 330 -418 c182 -230 330 -420 330 -424 0 -3 6 -11 14 -17 36 -29 442
-558 465 -606 l26 -55 3 -787 2 -786 -24 -29 -24 -28 -824 -3 c-606 -2 -830 1
-851 9 -58 24 -57 18 -57 619 0 600 0 599 56 620 14 6 129 10 255 10 l231 0
29 -29 29 -29 0 -231 c0 -229 0 -230 24 -258 l24 -28 210 0 c209 0 211 0 236
24 l26 24 0 384 0 383 -97 127 c-53 71 -289 378 -523 683 -234 305 -435 571
-447 591 -52 83 -53 100 -53 850 l0 697 26 31 26 31 812 0 813 0 24 -26z
m3614 2 c69 -24 135 -74 174 -132 66 -100 61 49 59 -2119 l-3 -1970 -26 -56
c-37 -79 -90 -133 -167 -171 l-67 -33 -675 0 -675 0 -67 33 c-77 38 -130 92
-167 171 l-26 56 -3 1964 c-3 2178 -7 2034 63 2137 39 57 73 85 148 120 l52
25 665 -4 c596 -4 670 -6 715 -21z m-15964 -15 l29 -29 0 -2182 c0 -2386 4
-2223 -58 -2249 -20 -8 -118 -11 -345 -9 l-317 3 -27 28 -28 27 -3 2163 c-1
1189 0 2177 3 2196 4 18 18 44 32 57 l26 24 329 0 330 0 29 -29z m1238 12 c15
-13 105 -261 325 -903 257 -749 307 -885 322 -885 18 0 19 29 24 883 l5 884
24 19 c22 18 43 19 325 19 290 0 303 -1 324 -20 12 -11 24 -31 27 -43 3 -12 4
-1002 3 -2200 l-3 -2179 -29 -24 -28 -25 -290 3 c-281 3 -290 4 -307 24 -9 12
-86 244 -171 515 -422 1356 -425 1364 -440 1364 -13 0 -16 -111 -20 -923 l-5
-924 -26 -22 c-25 -22 -38 -23 -245 -29 -376 -12 -414 -10 -441 15 l-23 21 0
2199 0 2199 25 24 24 25 289 0 c261 0 292 -2 311 -17z m16196 1 c24 -11 39
-29 53 -62 10 -26 149 -426 308 -890 262 -766 290 -843 309 -840 20 3 20 7 25
878 3 481 9 881 14 889 23 35 70 41 334 41 159 0 271 -4 290 -11 67 -23 62
170 62 -2239 l0 -2182 -29 -29 -29 -29 -282 0 -282 0 -26 28 c-22 22 -75 182
-312 945 -260 836 -287 918 -305 915 -20 -3 -20 -11 -25 -916 l-5 -914 -27
-23 c-32 -27 -75 -31 -408 -40 -240 -5 -253 -3 -282 55 -17 33 -18 158 -18
2188 0 2374 -5 2208 62 2237 50 22 527 21 573 -1z m-9784 -24 l30 -29 -3 -272
-3 -271 -24 -19 c-22 -18 -44 -19 -406 -19 -372 0 -383 -1 -409 -21 l-26 -20
0 -539 c0 -497 1 -539 18 -559 17 -20 25 -21 375 -23 l359 -3 24 -28 24 -28 0
-288 c0 -269 -1 -290 -19 -312 l-19 -24 -353 -3 c-345 -3 -354 -3 -376 -24
l-23 -21 0 -626 0 -625 22 -23 21 -23 372 0 c362 0 373 -1 399 -21 l26 -20 0
-299 0 -299 -26 -20 c-26 -20 -36 -21 -765 -21 l-740 0 -24 24 -25 25 0 2191
0 2191 25 24 c23 24 30 25 152 26 70 1 371 7 668 13 297 7 575 14 618 14 75 2
80 1 108 -28z m2354 -5 l25 -24 0 -1066 c0 -757 -3 -1079 -11 -1111 -11 -43
-34 -73 -92 -121 -44 -35 -36 -64 38 -143 l65 -69 0 -936 0 -936 -25 -24 -24
-25 -296 0 -296 0 -24 25 -25 24 0 841 c0 827 0 840 -20 860 -18 18 -33 20
-185 20 -152 0 -167 -2 -185 -20 -20 -20 -20 -33 -20 -864 l0 -845 -26 -20
c-26 -20 -39 -21 -306 -21 -275 0 -310 4 -330 34 -4 6 -8 1000 -8 2208 l0
2197 26 20 c27 21 32 21 861 21 l834 0 24 -25z m-14184 -132 c13 -16 12 -17
-3 -4 -10 7 -18 15 -18 17 0 8 8 3 21 -13z m190 -190 c13 -16 12 -17 -3 -4
-10 7 -18 15 -18 17 0 8 8 3 21 -13z m-5151 -257 c0 -2 -8 -10 -17 -17 -16
-13 -17 -12 -4 4 13 16 21 21 21 13z m2000 -39 c404 -96 723 -319 944 -660
288 -441 319 -1002 84 -1471 -89 -176 -173 -290 -320 -432 -213 -205 -476
-342 -765 -401 -134 -27 -433 -25 -570 5 -614 133 -1077 608 -1189 1222 -26
142 -24 403 4 536 103 480 400 865 837 1082 140 70 259 106 475 146 14 2 108
3 210 1 154 -3 202 -7 290 -28z m-2583 -1339 c-3 -8 -6 -5 -6 6 -1 11 2 17 5
13 3 -3 4 -12 1 -19z m6410 -45 c-3 -10 -5 -2 -5 17 0 19 2 27 5 18 2 -10 2
-26 0 -35z m0 -220 c-3 -10 -5 -2 -5 17 0 19 2 27 5 18 2 -10 2 -26 0 -35z
m-6410 -35 c-3 -7 -5 -2 -5 12 0 14 2 19 5 13 2 -7 2 -19 0 -25z m7623 -181
c0 -2 -10 -12 -22 -23 l-23 -19 19 23 c18 21 26 27 26 19z m-1890 -1430 c0 -2
-10 -12 -22 -23 l-23 -19 19 23 c18 21 26 27 26 19z m-160 -161 c0 -2 -8 -10
-17 -17 -16 -13 -17 -12 -4 4 13 16 21 21 21 13z m-3493 -322 c-3 -3 -12 -4
-19 -1 -8 3 -5 6 6 6 11 1 17 -2 13 -5z m380 0 c-3 -3 -12 -4 -19 -1 -8 3 -5
6 6 6 11 1 17 -2 13 -5z m1381 -391 c-21 -2 -55 -2 -75 0 -21 2 -4 4 37 4 41
0 58 -2 38 -4z"/>
<path d="M25612 5130 c-45 -10 -100 -65 -112 -111 -7 -24 -9 -554 -8 -1501 3
-1443 3 -1463 23 -1496 34 -57 75 -75 185 -80 125 -6 187 8 229 52 18 19 37
51 42 72 11 52 11 2897 -1 2948 -11 51 -65 105 -116 116 -47 11 -196 11 -242
0z"/>
<path d="M19409 5153 c-12 -13 -14 -138 -17 -700 l-2 -684 25 -25 25 -25 164
3 c120 2 167 7 179 17 16 12 17 75 17 712 0 680 -1 699 -19 709 -11 6 -91 10
-189 10 -146 0 -171 -2 -183 -17z"/>
</g>
</svg>
